<mxfile host="Electron" modified="2024-03-21T14:33:25.359Z" agent="Mozilla/5.0 (Windows NT 10.0; Win64; x64) AppleWebKit/537.36 (KHTML, like Gecko) draw.io/24.0.4 Chrome/120.0.6099.109 Electron/28.1.0 Safari/537.36" etag="OCQ1uMGXCwsq8TWgRQuL" version="24.0.4" type="device">
  <diagram name="Page-1" id="9fFczshBQtT8yQDBVijM">
    <mxGraphModel dx="1434" dy="844" grid="1" gridSize="10" guides="1" tooltips="1" connect="1" arrows="1" fold="1" page="1" pageScale="1" pageWidth="850" pageHeight="1100" math="0" shadow="0">
      <root>
        <mxCell id="0" />
        <mxCell id="1" parent="0" />
        <mxCell id="lcndi4HIZEsr9I4jf5RB-7" value="" style="edgeStyle=orthogonalEdgeStyle;rounded=0;orthogonalLoop=1;jettySize=auto;html=1;" edge="1" parent="1" source="lcndi4HIZEsr9I4jf5RB-3" target="lcndi4HIZEsr9I4jf5RB-4">
          <mxGeometry relative="1" as="geometry" />
        </mxCell>
        <mxCell id="lcndi4HIZEsr9I4jf5RB-3" value="GET Packet" style="rounded=1;whiteSpace=wrap;html=1;" vertex="1" parent="1">
          <mxGeometry x="365" y="80" width="120" height="60" as="geometry" />
        </mxCell>
        <mxCell id="lcndi4HIZEsr9I4jf5RB-6" value="" style="edgeStyle=orthogonalEdgeStyle;rounded=0;orthogonalLoop=1;jettySize=auto;html=1;" edge="1" parent="1" source="lcndi4HIZEsr9I4jf5RB-4" target="lcndi4HIZEsr9I4jf5RB-5">
          <mxGeometry relative="1" as="geometry" />
        </mxCell>
        <mxCell id="lcndi4HIZEsr9I4jf5RB-4" value="Calculate CRC8" style="rounded=1;whiteSpace=wrap;html=1;" vertex="1" parent="1">
          <mxGeometry x="365" y="200" width="120" height="60" as="geometry" />
        </mxCell>
        <mxCell id="lcndi4HIZEsr9I4jf5RB-11" value="" style="edgeStyle=orthogonalEdgeStyle;rounded=0;orthogonalLoop=1;jettySize=auto;html=1;" edge="1" parent="1" source="lcndi4HIZEsr9I4jf5RB-5" target="lcndi4HIZEsr9I4jf5RB-9">
          <mxGeometry relative="1" as="geometry" />
        </mxCell>
        <mxCell id="lcndi4HIZEsr9I4jf5RB-13" value="" style="edgeStyle=orthogonalEdgeStyle;rounded=0;orthogonalLoop=1;jettySize=auto;html=1;" edge="1" parent="1" source="lcndi4HIZEsr9I4jf5RB-5" target="lcndi4HIZEsr9I4jf5RB-8">
          <mxGeometry relative="1" as="geometry" />
        </mxCell>
        <mxCell id="lcndi4HIZEsr9I4jf5RB-5" value="Match&lt;div&gt;?&lt;/div&gt;" style="rhombus;whiteSpace=wrap;html=1;" vertex="1" parent="1">
          <mxGeometry x="385" y="320" width="80" height="80" as="geometry" />
        </mxCell>
        <mxCell id="lcndi4HIZEsr9I4jf5RB-8" value="SEND&amp;nbsp;&lt;div&gt;retransmit request&lt;/div&gt;" style="rounded=1;whiteSpace=wrap;html=1;" vertex="1" parent="1">
          <mxGeometry x="200" y="330" width="120" height="60" as="geometry" />
        </mxCell>
        <mxCell id="lcndi4HIZEsr9I4jf5RB-12" value="" style="edgeStyle=orthogonalEdgeStyle;rounded=0;orthogonalLoop=1;jettySize=auto;html=1;" edge="1" parent="1" source="lcndi4HIZEsr9I4jf5RB-9" target="lcndi4HIZEsr9I4jf5RB-10">
          <mxGeometry relative="1" as="geometry" />
        </mxCell>
        <mxCell id="lcndi4HIZEsr9I4jf5RB-15" value="" style="edgeStyle=orthogonalEdgeStyle;rounded=0;orthogonalLoop=1;jettySize=auto;html=1;" edge="1" parent="1" source="lcndi4HIZEsr9I4jf5RB-9" target="lcndi4HIZEsr9I4jf5RB-14">
          <mxGeometry relative="1" as="geometry" />
        </mxCell>
        <mxCell id="lcndi4HIZEsr9I4jf5RB-9" value="Is&lt;div&gt;Expected&lt;/div&gt;&lt;div&gt;?&lt;/div&gt;" style="rhombus;whiteSpace=wrap;html=1;" vertex="1" parent="1">
          <mxGeometry x="385" y="440" width="80" height="80" as="geometry" />
        </mxCell>
        <mxCell id="lcndi4HIZEsr9I4jf5RB-17" style="edgeStyle=orthogonalEdgeStyle;rounded=0;orthogonalLoop=1;jettySize=auto;html=1;entryX=0.5;entryY=1;entryDx=0;entryDy=0;" edge="1" parent="1" source="lcndi4HIZEsr9I4jf5RB-10" target="lcndi4HIZEsr9I4jf5RB-16">
          <mxGeometry relative="1" as="geometry" />
        </mxCell>
        <mxCell id="lcndi4HIZEsr9I4jf5RB-10" value="Store In Buffer" style="rounded=1;whiteSpace=wrap;html=1;" vertex="1" parent="1">
          <mxGeometry x="365" y="560" width="120" height="60" as="geometry" />
        </mxCell>
        <mxCell id="lcndi4HIZEsr9I4jf5RB-19" style="edgeStyle=orthogonalEdgeStyle;rounded=0;orthogonalLoop=1;jettySize=auto;html=1;entryX=1;entryY=0.5;entryDx=0;entryDy=0;" edge="1" parent="1" source="lcndi4HIZEsr9I4jf5RB-14" target="lcndi4HIZEsr9I4jf5RB-3">
          <mxGeometry relative="1" as="geometry">
            <Array as="points">
              <mxPoint x="590" y="110" />
            </Array>
          </mxGeometry>
        </mxCell>
        <mxCell id="lcndi4HIZEsr9I4jf5RB-14" value="Not ACK" style="rounded=1;whiteSpace=wrap;html=1;" vertex="1" parent="1">
          <mxGeometry x="520" y="450" width="120" height="60" as="geometry" />
        </mxCell>
        <mxCell id="lcndi4HIZEsr9I4jf5RB-18" style="edgeStyle=orthogonalEdgeStyle;rounded=0;orthogonalLoop=1;jettySize=auto;html=1;entryX=0.5;entryY=0;entryDx=0;entryDy=0;" edge="1" parent="1" source="lcndi4HIZEsr9I4jf5RB-16" target="lcndi4HIZEsr9I4jf5RB-3">
          <mxGeometry relative="1" as="geometry">
            <Array as="points">
              <mxPoint x="740" y="60" />
              <mxPoint x="425" y="60" />
            </Array>
          </mxGeometry>
        </mxCell>
        <mxCell id="lcndi4HIZEsr9I4jf5RB-16" value="ACK" style="rounded=1;whiteSpace=wrap;html=1;" vertex="1" parent="1">
          <mxGeometry x="680" y="330" width="120" height="60" as="geometry" />
        </mxCell>
        <mxCell id="lcndi4HIZEsr9I4jf5RB-20" style="edgeStyle=orthogonalEdgeStyle;rounded=0;orthogonalLoop=1;jettySize=auto;html=1;entryX=0.008;entryY=0.4;entryDx=0;entryDy=0;entryPerimeter=0;" edge="1" parent="1" source="lcndi4HIZEsr9I4jf5RB-8" target="lcndi4HIZEsr9I4jf5RB-3">
          <mxGeometry relative="1" as="geometry">
            <Array as="points">
              <mxPoint x="260" y="104" />
            </Array>
          </mxGeometry>
        </mxCell>
      </root>
    </mxGraphModel>
  </diagram>
</mxfile>
